Coordinates
version=1
nRows=4
nColumns=63
inDegrees=yes

Units are S.I. units (second, meters, Newtons, ...)
If the header above contains a line with 'inDegrees', this indicates whether rotational values are in degrees (yes) or radians (no).

endheader
time	pelvis_tilt	pelvis_list	pelvis_rotation	pelvis_tx	pelvis_ty	pelvis_tz	hip_flexion_r	hip_adduction_r	hip_rotation_r	knee_angle_r	knee_angle_r_beta	ankle_angle_r	subtalar_angle_r	mtp_angle_r	hip_flexion_l	hip_adduction_l	hip_rotation_l	knee_angle_l	knee_angle_l_beta	ankle_angle_l	subtalar_angle_l	mtp_angle_l	L5_S1_Flex_Ext	L5_S1_Lat_Bending	L5_S1_axial_rotation	L4_L5_Flex_Ext	L4_L5_Lat_Bending	L4_L5_axial_rotation	L3_L4_Flex_Ext	L3_L4_Lat_Bending	L3_L4_axial_rotation	L2_L3_Flex_Ext	L2_L3_Lat_Bending	L2_L3_axial_rotation	L1_L2_Flex_Ext	L1_L2_Lat_Bending	L1_L2_axial_rotation	L1_T12_Flex_Ext	L1_T12_Lat_Bending	L1_T12_axial_rotation	Abs_r3	Abs_r2	Abs_r1	Abs_t1	Abs_t2	neck_flexion	neck_bending	neck_rotation	arm_flex_r	arm_add_r	arm_rot_r	elbow_flex_r	pro_sup_r	wrist_flex_r	wrist_dev_r	arm_flex_l	arm_add_l	arm_rot_l	elbow_flex_l	pro_sup_l	wrist_flex_l	wrist_dev_l
      4.56666667	      6.04238144	     -0.27308796	   -183.93495633	      2.55905542	      0.88373405	      0.67276838	     15.37672250	     -3.74067786	    -13.56757966	     25.85663807	      0.45128347	     25.38094985	      1.75164745	      0.00000000	      7.91894050	     -0.71870185	      0.16464725	     14.67671304	      0.25615697	     15.32501840	    -17.98003728	      0.00000000	      0.00233274	     -0.11073131	     -0.65113832	      0.00433213	     -0.14727264	     -0.69183447	      0.00383246	     -0.26923210	     -0.69183447	      0.00266609	     -0.26923210	     -0.56974603	      0.00216618	     -0.22580328	     -0.52904989	      0.00133293	     -0.17152279	     -0.48835374	      0.01666251	     -1.25261469	     -3.62143601	      0.00000000	      0.00000000	     -0.00000000	      0.00000000	      0.00000000	     -9.26110670	     -1.98130753	    -12.85719997	     29.58599938	     52.53757559	      0.00000000	      5.00000014	    -17.24458749	     -5.07179643	      9.55443439	     25.56104081	     54.27831289	      0.00000000	      5.00000014
      4.60000000	      6.01362780	     -0.31767283	   -184.15800755	      2.55903329	      0.88379381	      0.67220533	     15.32551346	     -3.59428198	    -13.06370508	     25.78731356	      0.45007353	     25.28794518	      1.53374573	      0.00000000	      7.82924771	     -0.74745066	     -0.32492478	     14.70513550	      0.25665303	     15.24689778	    -17.89634873	      0.00000000	      0.00119610	     -0.11683067	     -0.60740591	      0.00222128	     -0.15538479	     -0.64536878	      0.00196508	     -0.28406209	     -0.64536878	      0.00136703	     -0.28406209	     -0.53148017	      0.00111070	     -0.23824110	     -0.49351730	      0.00068345	     -0.18097071	     -0.45555443	      0.00854364	     -1.32161191	     -3.37820944	      0.00000000	      0.00000000	     -0.00000000	      0.00000000	      0.00000000	     -9.31347498	     -1.87845837	    -12.78976795	     29.54974227	     52.22021488	      0.00000000	      5.00000014	    -17.25053364	     -5.06398824	      9.44220676	     25.62033730	     53.88549246	      0.00000000	      5.00000014
      4.63333333	      6.00850209	     -0.47889520	   -184.08674445	      2.55890331	      0.88375614	      0.67196836	     15.30302185	     -3.67913181	    -12.83567841	     25.79075456	      0.45013358	     25.38998606	      1.33425826	      0.00000000	      7.71972649	     -0.56421216	     -0.08796158	     14.48813041	      0.25286558	     15.00033059	    -18.12507196	      0.00000000	      0.00223258	     -0.13918951	     -0.62739009	      0.00414612	     -0.18512205	     -0.66660198	      0.00366790	     -0.33842537	     -0.66660198	      0.00255161	     -0.33842537	     -0.54896633	      0.00207317	     -0.28383525	     -0.50975445	      0.00127569	     -0.21560455	     -0.47054257	      0.01594707	     -1.57453958	     -3.48935549	      0.00000000	      0.00000000	     -0.00000000	      0.00000000	      0.00000000	     -9.32534957	     -1.84991012	    -12.04376401	     29.39393157	     52.35534475	      0.00000000	      5.00000014	    -17.31064683	     -5.22608354	      9.62842401	     25.80564577	     53.90379112	      0.00000000	      5.00000014
      4.66666667	      6.00911829	     -0.50227740	   -184.14607990	      2.55883556	      0.88376915	      0.67190193	     15.31282707	     -3.67555034	    -12.66792039	     25.78447020	      0.45002390	     25.40682636	      1.58508632	      0.00000000	      7.76324128	     -0.53747186	     -0.13861931	     14.54019721	      0.25377432	     14.99740798	    -18.17794952	      0.00000000	      0.00215981	     -0.14231811	     -0.62770625	      0.00401098	     -0.18928309	     -0.66693789	      0.00354835	     -0.34603225	     -0.66693789	      0.00246845	     -0.34603225	     -0.54924297	      0.00200560	     -0.29021509	     -0.51001132	      0.00123412	     -0.22045075	     -0.47077968	      0.01542731	     -1.60993092	     -3.49111383	      0.00000000	      0.00000000	     -0.00000000	      0.00000000	      0.00000000	     -9.22397494	     -2.29199392	     -9.64221721	     28.94565710	     52.88980172	      0.00000000	      5.00000014	    -17.32045954	     -5.31610450	     10.02139681	     25.88999031	     54.09127379	      0.00000000	      5.00000014
